<?xml version="1.0" encoding="UTF-8"?>
<!DOCTYPE svg PUBLIC "-//W3C//DTD SVG 1.1//EN" "http://www.w3.org/Graphics/SVG/1.1/DTD/svg11.dtd">
<!-- Creator: CorelDRAW 2021.5 (Versão de avaliação) -->
<svg xmlns="http://www.w3.org/2000/svg" xml:space="preserve" width="46.9244mm" height="33.9091mm" version="1.1" style="shape-rendering:geometricPrecision; text-rendering:geometricPrecision; image-rendering:optimizeQuality; fill-rule:evenodd; clip-rule:evenodd"
viewBox="0 0 1128.33 815.37"
 xmlns:xlink="http://www.w3.org/1999/xlink"
 xmlns:xodm="http://www.corel.com/coreldraw/odm/2003">
 <defs>
  <style type="text/css">
   <![CDATA[
    .fil1 {fill:none}
    .fil0 {fill:#1A1A1A}
    .fil2 {fill:#F5CA1B;fill-rule:nonzero}
   ]]>
  </style>
 </defs>
 <g id="Camada_x0020_1">
  <metadata id="CorelCorpID_0Corel-Layer"/>
  <path class="fil0" d="M179.48 85.02l1 225.47 127.52 0.5 1.24 73.83c-33.56,0 -149.4,6.46 -194.39,-3.23 -9.94,-19.64 -30.58,-33.31 -54.19,-33.31 -33.56,0 -60.66,27.34 -60.66,60.66 0,33.56 27.09,60.66 60.66,60.66 25.6,0 47.23,-15.66 56.18,-37.79 23.12,-2.73 75.07,-3.73 192.65,-3.73l-0.5 84.02 -128.77 0 -0.25 159.59c-17.15,10.44 -33.31,17.4 -49.47,26.6 -14.17,7.95 -21.38,12.18 -26.35,14.17 -10.94,-11.43 -26.35,-18.39 -43.5,-18.39 -33.56,0 -60.66,27.09 -60.66,60.66 0,33.56 27.09,60.66 60.66,60.66 33.56,0 60.66,-27.09 60.66,-60.66 8.95,-7.46 21.87,-15.91 40.27,-25.85 24.61,-13.17 33.31,-19.89 58.17,-26.85l0.75 -146.91 86.26 -1c14.92,75.07 1.99,108.63 61.9,144.18 52.7,31.32 330.12,28.34 382.07,1.74 55.43,-28.59 63.89,-71.34 63.64,-151.88l88.75 0.25 0.25 219.75 102.91 5.22c1.74,0.75 3.23,1.49 4.47,2.24 8.45,23.12 30.82,39.77 56.93,39.77 33.56,0 60.66,-27.09 60.66,-60.66 0,-33.56 -27.09,-60.66 -60.66,-60.66 -25.36,0 -47.23,15.66 -56.18,37.79 -9.7,1.74 -27.59,2.24 -66.37,0.75l-2.49 -225.71 -126.03 -1 -2.49 -77.81 199.37 8.2c9.94,19.89 30.58,33.31 54.19,33.31 33.56,0 60.66,-27.09 60.66,-60.66 0,-33.31 -27.09,-60.66 -60.66,-60.66 -23.12,0 -43.01,12.93 -53.45,32.07 -41.26,11.68 -162.33,4.47 -197.13,4.72l-2.24 -74.33 127.52 -0.25 0.75 -164.81c74.82,-35.05 66.12,-41.76 83.77,-40.02 10.94,9.7 25.11,15.66 40.77,15.66 33.56,0 60.66,-27.09 60.66,-60.66 0,-33.56 -27.09,-60.66 -60.66,-60.66 -33.56,0 -60.66,27.09 -60.66,60.66 0,0.5 0,1.24 0,1.74 -19.39,19.14 -77.31,40.02 -103.16,59.41l-0.75 147.16 -88.75 0.25c0.5,-180.47 -83.27,-169.29 -248.58,-169.29 -167.3,0 -256.29,-11.43 -255.79,169.04l-89.99 -1 0 -224.22 -101.17 0c-7.21,-25.36 -30.58,-43.75 -58.17,-43.75 -33.56,0 -60.66,27.09 -60.66,60.66 0,33.56 27.09,60.66 60.66,60.66 25.36,0 47.23,-15.66 56.18,-37.79 11.93,-1.99 30.58,-1.99 62.64,1.49l0 0.01z"/>
  <g id="_2434877848544">
   <path class="fil1" d="M657.75 297.32l-169.53 0c-44.25,10.69 -48.72,98.19 0,108.13l132.99 1.24c56.93,-1.74 71.84,107.64 0,122.8l-156.86 -1.49m137.96 9.45l0 69.35m-83.53 -69.35l0 69.35m83.53 -395.75l0 69.6m-83.53 -69.6l0 69.6"/>
   <path class="fil2" d="M657.75 273.7c12.93,0 23.62,10.69 23.62,23.62 0,12.93 -10.69,23.62 -23.62,23.62l-166.05 0c-4.47,1.74 -7.95,6.21 -10.44,11.43 -2.98,6.21 -4.47,13.67 -4.47,21.13 0,7.21 1.49,13.92 4.47,19.64 2.24,4.22 5.47,7.46 9.94,8.95l129.76 1.24c27.59,-0.75 48.47,14.67 60.66,36.79 5.97,10.94 9.7,23.37 10.94,36.04 1.24,12.93 0.25,26.1 -3.48,38.28 -7.95,27.34 -28.09,50.71 -62.89,57.92l-0.25 0 0 54.44c0,13.17 -10.69,23.62 -23.62,23.62 -12.93,0 -23.62,-10.44 -23.62,-23.62l0 -54.19 -36.29 -0.5 0 54.69c0,13.17 -10.69,23.62 -23.62,23.62 -12.93,0 -23.37,-10.44 -23.37,-23.62l0 -54.94 -31.07 -0.25c-13.17,-0.25 -23.37,-10.69 -23.37,-23.62 0,-13.17 10.69,-23.37 23.62,-23.37l153.87 1.24c13.92,-3.48 22.37,-13.42 25.6,-24.86 1.99,-6.46 2.49,-13.17 1.74,-19.89 -0.5,-6.71 -2.49,-12.93 -5.47,-18.39 -4.22,-7.46 -10.44,-12.68 -18.39,-12.43l0 0c-0.25,0 -0.5,0 -1,0l-132 -1.49c-1.74,0 -3.73,0 -5.47,-0.5 -20.63,-4.22 -35.05,-16.9 -43.75,-33.31 -6.71,-12.43 -9.7,-26.85 -9.7,-41.51 0,-13.92 2.98,-28.34 8.7,-41.02 8.45,-17.65 22.12,-31.82 41.51,-37.29 2.49,-1 5.22,-1.49 7.95,-1.49l7.21 0 0 -62.64c0,-12.93 10.44,-23.37 23.37,-23.37 12.93,0 23.62,10.44 23.62,23.37l0 62.64 36.29 0 0 -62.64c0,-12.93 10.69,-23.37 23.62,-23.37 12.93,0 23.62,10.44 23.62,23.37l0 62.64 31.82 0 0 -0z"/>
  </g>
 </g>
</svg>
